<?xml version="1.0" encoding="utf-8"?>
<!-- Generator: Adobe Illustrator 17.1.0, SVG Export Plug-In . SVG Version: 6.00 Build 0)  -->
<!DOCTYPE svg PUBLIC "-//W3C//DTD SVG 1.1//EN" "http://www.w3.org/Graphics/SVG/1.1/DTD/svg11.dtd">
<svg version="1.1" id="Layer_1" xmlns="http://www.w3.org/2000/svg" xmlns:xlink="http://www.w3.org/1999/xlink" x="0px" y="0px"
	 viewBox="0 0 866 1000" enable-background="new 0 0 866 1000" xml:space="preserve">
<g>
	<g>
		<rect x="423.8" y="194.6" fill="#231F20" width="22" height="251.5"/>
	</g>
	<polygon fill="#231F20" points="434.4,458.8 313.2,336.9 328.8,321.4 434.5,427.7 540.8,321.3 556.4,336.9 	"/>
</g>
<path fill="#231F20" d="M582.7,457.7v269.6H286.9V457.7H582.7 M604.7,435.7H264.9v313.6h339.8V435.7L604.7,435.7z"/>
<polygon fill="#231F20" points="547,815.7 322.1,815.7 265.4,747.9 282.3,733.8 332.4,793.7 536.7,793.7 586.8,733.8 603.6,747.9 
	"/>
<path fill="#231F20" d="M435,112.5c54,0,106.3,10.6,155.6,31.4c47.6,20.1,90.4,49,127.1,85.7c36.7,36.7,65.5,79.5,85.7,127.1
	c20.8,49.3,31.4,101.6,31.4,155.6s-10.6,106.3-31.4,155.6c-20.1,47.6-49,90.4-85.7,127.1c-36.7,36.7-79.5,65.5-127.1,85.7
	C541.3,901.5,488.9,912,435,912s-106.3-10.6-155.6-31.4c-47.6-20.1-90.4-49-127.1-85.7c-36.7-36.7-65.5-79.5-85.7-127.1
	c-20.8-49.3-31.4-101.6-31.4-155.6S45.8,406,66.6,356.7c20.1-47.6,49-90.4,85.7-127.1c36.7-36.7,79.5-65.5,127.1-85.7
	C328.6,123.1,381,112.5,435,112.5 M435,90.5C202,90.5,13.2,279.4,13.2,512.3S202,934,435,934s421.7-188.8,421.7-421.7
	S667.9,90.5,435,90.5L435,90.5z"/>
</svg>
