<?xml version="1.0" encoding="utf-8"?>
<!-- Generator: Adobe Illustrator 17.1.0, SVG Export Plug-In . SVG Version: 6.00 Build 0)  -->
<!DOCTYPE svg PUBLIC "-//W3C//DTD SVG 1.1//EN" "http://www.w3.org/Graphics/SVG/1.1/DTD/svg11.dtd">
<svg version="1.1" id="Layer_1" xmlns="http://www.w3.org/2000/svg" xmlns:xlink="http://www.w3.org/1999/xlink" x="0px" y="0px"
	 viewBox="22 369.5 803.9 242" enable-background="new 22 369.5 803.9 242" xml:space="preserve">
<g>
	<path fill="#231F20" d="M391.6,540.7v-7.1h15.7l-12.2-34.2h-47.9L335,533.6h15.9v7.1h-35.8v-7.1h10.2l40.3-109.1h12l40.1,109.1H428
		v7.1H391.6z M392.2,492.1l-21-59.3l-20.8,59.3H392.2z"/>
	<path fill="#FFFFFF" d="M377.4,424.8l40.1,109.1h10.2v6.6h-36v-6.6h15.8l-12.3-34.7H347l-12.3,34.7h16v6.6h-35.3v-6.6h10.1
		l40.3-109.1H377.4 M350,492.3h42.6L371.1,432L350,492.3 M377.7,424.3h-0.3h-11.6h-0.3l-0.1,0.3l-40.2,108.8h-9.7h-0.5v0.5v6.6v0.5
		h0.5h35.3h0.5v-0.5v-6.6v-0.5h-0.5h-15.3l12-33.7h47.6l12,33.7h-15.1h-0.5v0.5v6.6v0.5h0.5h36h0.5v-0.5v-6.6v-0.5h-0.5h-9.9
		l-40-108.8L377.7,424.3L377.7,424.3z M350.7,491.8l20.5-58.3l20.7,58.3H350.7L350.7,491.8z"/>
</g>
<g>
	<path fill="#231F20" d="M462,542.1c-20.9,0-33.9-16.5-33.9-43c0-26.6,13.6-43.8,34.6-43.8c12,0,21.4,5.8,26,15.9v-39.7h-13.7v-6.9
		h22.4v109.3h11.5v6.9h-20.1v-15.8C484.5,535.8,474.8,542.1,462,542.1z M463.9,462.3c-16.5,0-26.7,13.8-26.7,36.1
		c0,23,9.8,36.7,26.2,36.7c16.7,0,25.5-13,25.5-37.6C488.8,475.2,479.7,462.3,463.9,462.3z"/>
	<path fill="#FFFFFF" d="M497.1,424.8V534h11.5v6.4h-19.6v-17c-3.8,11.6-13.7,18.4-26.9,18.4c-20.8,0-33.7-16.2-33.7-42.7
		c0-26.7,13.4-43.6,34.4-43.6c12.3,0,21.9,6.1,26.2,16.8v-41.2h-13.7v-6.4H497.1 M463.4,535.4c16.8,0,25.7-13.2,25.7-37.9
		c0-22.6-9.2-35.4-25.2-35.4c-16.5,0-26.9,14.1-26.9,36.3C437,521.5,446.9,535.4,463.4,535.4 M497.6,424.3h-0.5h-21.9h-0.5v0.5v6.4
		v0.5h0.5h13.2V470c-4.8-9.6-14-15-25.7-15c-10.5,0-19.3,4.1-25.5,12c-6.2,7.8-9.4,18.9-9.4,32.1c0,13.1,3.2,24.1,9.1,31.6
		c6,7.6,14.7,11.6,25.1,11.6c12.5,0,22-5.9,26.4-16.2v14.3v0.5h0.5h19.6h0.5v-0.5V534v-0.5h-0.5h-11V424.8V424.3L497.6,424.3z
		 M463.4,534.9c-16.2,0-25.9-13.6-25.9-36.5c0-10.8,2.5-19.9,7.2-26.2c4.7-6.3,11.3-9.6,19.2-9.6c15.7,0,24.7,12.7,24.7,34.9
		C488.6,522,479.9,534.9,463.4,534.9L463.4,534.9z"/>
</g>
<g>
	<polygon fill="#231F20" points="513,540.7 513,533.6 528.8,533.6 528.8,432 513,432 513,424.5 595.1,424.5 595.1,459.9 
		586.8,459.9 586.8,432 538.1,432 538.1,479.7 564.9,479.7 564.9,460.8 572.9,460.8 572.9,506.3 564.9,506.3 564.9,487 538.3,487 
		538.3,533.4 557.8,533.4 557.8,540.7 	"/>
	<path fill="#FFFFFF" d="M594.9,424.8v34.9H587v-28h-49.2V480h27.3v-18.9h7.5v45h-7.5v-19.3h-27.1v46.9h19.5v6.8h-44.3v-6.6H529
		V431.7h-15.8v-6.9H594.9 M595.4,424.3h-0.5h-81.6h-0.5v0.5v6.9v0.5h0.5h15.3v101.1h-15.3h-0.5v0.5v6.6v0.5h0.5h44.3h0.5v-0.5v-6.8
		v-0.5h-0.5h-19v-45.9h26.1V506v0.5h0.5h7.5h0.5V506v-45v-0.5h-0.5h-7.5h-0.5v0.5v18.4h-26.3v-47.3h48.2v27.5v0.5h0.5h7.8h0.5v-0.5
		v-34.9V424.3L595.4,424.3z"/>
</g>
<g>
	<path fill="#231F20" d="M639,542.2c-9,0-16.2-2.7-20.2-7.7c-4.4-5.5-6-11.7-6-23.8v-47h-12v-6.9h21.2v53.6
		c0,17.1,5.8,25.1,18.3,25.1c14.8,0,22.3-11.2,22.3-33.3v-38.5h-14.2v-6.9h23.3v76.8h12.3v7.1h-21.3v-14.4
		C660.3,536.1,651.2,542.2,639,542.2z"/>
	<path fill="#FFFFFF" d="M671.5,457.1v76.8h12.3v6.6H663v-16.8c-1.4,11.3-10.8,18.4-24,18.4c-8.7,0-16-2.6-20-7.6
		c-4.3-5.4-5.9-11.5-5.9-23.6v-47.2h-12v-6.4h20.7v53.3c0,17.2,5.9,25.4,18.6,25.4c14.9,0,22.6-11.3,22.6-33.5v-38.7h-14.2v-6.4
		H671.5 M672,456.6h-0.5h-22.8h-0.5v0.5v6.4v0.5h0.5h13.7v38.2c0,21.9-7.4,33-22.1,33c-12.3,0-18.1-7.9-18.1-24.9v-53.3v-0.5h-0.5
		h-20.7h-0.5v0.5v6.4v0.5h0.5h11.5v46.7c0,12.2,1.6,18.4,6,23.9c4,5,11.2,7.8,20.4,7.8c11.7,0,20.4-5.6,23.5-14.5v12.4v0.5h0.5h20.8
		h0.5v-0.5v-6.6v-0.5h-0.5H672v-76.3V456.6L672,456.6z"/>
</g>
<g>
	<path fill="#231F20" d="M720.8,542.2c-11.8,0-18.6-3.8-23.4-12.9v11.3h-7.3v-30.4h7.3l0,0.2c0.7,15.5,9,24.8,22.3,24.8
		c11.5,0,19.9-7.3,19.9-17.3c0-9-4.8-13.3-16.5-15l-9.4-1.4c-15.9-2.3-22.6-8.6-22.6-21.3c0-15,10.8-25.1,27-25.1
		c10.7,0,16.8,3.1,22,11.3V457h7.1v28.8h-7.1v-2.3c0-12.7-8.4-21.3-20.9-21.3c-11.5,0-19.2,6.8-19.2,16.9c0,8,4.7,12.4,14.9,14
		l9,1.4c11.9,1.8,17.3,4.2,21.4,9.7c2.4,3.3,3.7,7.7,3.7,12.7C749,532.3,738,542.2,720.8,542.2z"/>
	<path fill="#FFFFFF" d="M718.2,455.5c10.9,0,17,3.3,22.2,12v-10.2h6.6v28.3h-6.6c0-0.9,0-1.6,0-2.1c0-12.9-8.5-21.5-21.2-21.5
		c-11.6,0-19.5,6.9-19.5,17.2c0,8.2,4.9,12.7,15.1,14.2l9,1.4c11.8,1.7,17.2,4.2,21.2,9.6c2.4,3.3,3.6,7.6,3.6,12.5
		c0,15.3-11.1,25.2-28,25.2c-12,0-18.9-4-23.6-13.7v12.2h-6.8v-29.9h6.8c0.7,15.6,9.2,25,22.6,25c11.6,0,20.1-7.3,20.1-17.5
		c0-9.2-4.9-13.5-16.7-15.3l-9.4-1.4c-15.6-2.3-22.4-8.5-22.4-21C691.5,465.6,702.2,455.5,718.2,455.5 M718.2,455
		c-16.3,0-27.2,10.2-27.2,25.3c0,12.8,6.8,19.2,22.8,21.5l9.4,1.4c11.7,1.7,16.2,5.9,16.2,14.8c0,9.9-8.3,17-19.6,17
		c-13.1,0-21.4-9.2-22.1-24.5l0-0.5h-0.5h-6.8h-0.5v0.5v29.9v0.5h0.5h6.8h0.5v-0.5v-10.1c4.7,8.5,11.8,12.2,23.1,12.2
		c8.4,0,15.5-2.4,20.6-7c5.1-4.6,7.8-11.1,7.8-18.7c0-5.1-1.3-9.5-3.7-12.8c-4.1-5.5-9.5-8-21.5-9.8l-9-1.4
		c-10-1.5-14.7-5.9-14.7-13.7c0-10,7.6-16.7,19-16.7c12.4,0,20.7,8.5,20.7,21v2.1v0.5h0.5h6.6h0.5v-0.5v-28.3v-0.5H747h-6.6h-0.5
		v0.5v8.5C734.8,458,728.6,455,718.2,455L718.2,455z"/>
</g>
<g>
	<g>
		<path fill="#231F20" d="M825.2,500.1c0-1,0.2-1.7,0.2-2.3c0-26.7-12.7-42.7-33.9-42.7c-22.1,0-35.3,16.5-35.3,43.9
			c0,27.3,13.4,43.4,35.6,43.4c17.7,0,29.9-10.1,32.1-27.1h-8c-1.9,12.9-10.8,20.8-23.1,20.8c-16.3,0-27.8-13.7-27.8-33.3
			c0-0.9,0-1.7,0-2.8H825.2z M791.3,461.6c15.1,0,24.8,12.3,25.2,32.3h-51.2C766.3,473.7,776.2,461.6,791.3,461.6z"/>
	</g>
</g>
<path fill="#231F20" d="M143,385.6c28,0,54.4,10.9,74.2,30.7c19.8,19.8,30.7,46.2,30.7,74.2s-10.9,54.4-30.7,74.2
	c-19.8,19.8-46.2,30.7-74.2,30.7s-54.4-10.9-74.2-30.7c-19.8-19.8-30.7-46.2-30.7-74.2s10.9-54.4,30.7-74.2
	C88.6,396.5,115,385.6,143,385.6 M143,369.5c-66.8,0-121,54.2-121,121s54.2,121,121,121s121-54.2,121-121S209.8,369.5,143,369.5
	L143,369.5z"/>
<path fill="#231F20" d="M205.1,547.3l-51.7-136.1c-0.4-1.4-1.5-2-2.9-2h-14.8c-1.4,0-2.5,0.6-2.9,2L81,547.3
	c-0.2,0.6-0.2,0.8-0.2,1.2c0,1.4,0.8,2,2.2,2h13.3c1.6,0,2-0.6,2.4-2L143,430.7l44.3,117.7c0.4,1.4,0.8,2,2.4,2H203
	c1.4,0,2.2-0.6,2.2-2C205.3,548.1,205.3,547.9,205.1,547.3z"/>
<polygon fill="#231F20" points="158.7,514.9 127.3,514.9 143,474.3 "/>
</svg>
