<?xml version="1.0" encoding="utf-8"?>
<!-- Generator: Adobe Illustrator 17.0.0, SVG Export Plug-In . SVG Version: 6.00 Build 0)  -->
<!DOCTYPE svg PUBLIC "-//W3C//DTD SVG 1.1//EN" "http://www.w3.org/Graphics/SVG/1.1/DTD/svg11.dtd">
<svg version="1.1" id="Layer_1" xmlns="http://www.w3.org/2000/svg" xmlns:xlink="http://www.w3.org/1999/xlink" x="0px" y="0px"
	 width="866px" height="1000px" viewBox="0 0 866 1000" enable-background="new 0 0 866 1000" xml:space="preserve">
<path d="M444.556,14C176.944,14,42,205.842,42,365.912c0,96.883,36.644,183.058,115.311,215.157
	c12.911,5.317,24.481,0.178,28.215-14.075c2.608-9.873,8.772-34.834,11.531-45.214c3.734-14.126,2.279-19.063-8.139-31.442
	c-22.657-26.707-37.188-61.339-37.188-110.426c0-142.349,106.503-269.789,277.333-269.789c151.273,0,234.396,92.428,234.396,215.866
	c0,162.426-71.895,299.51-178.602,299.51c-58.909,0-102.995-48.708-88.896-108.503c16.924-71.365,49.721-148.349,49.721-199.918
	c0-46.075-24.771-84.554-75.972-84.554c-60.239,0-108.63,62.327-108.63,145.818c0,53.163,17.974,89.137,17.974,89.137
	s-61.669,261.206-72.466,306.951c-21.506,91.085-3.24,202.753-1.671,213.993c0.898,6.683,9.493,8.303,13.417,3.265
	c5.507-7.265,77.315-95.794,101.655-184.323c6.924-25.037,39.631-154.83,39.631-154.83c19.569,37.366,76.77,70.175,137.591,70.175
	c181.057,0,303.926-165.084,303.926-386.013C801.164,169.616,659.637,14,444.556,14z"/>
</svg>
