<?xml version="1.0" encoding="utf-8"?>
<!-- Generator: Adobe Illustrator 17.0.0, SVG Export Plug-In . SVG Version: 6.00 Build 0)  -->
<!DOCTYPE svg PUBLIC "-//W3C//DTD SVG 1.1//EN" "http://www.w3.org/Graphics/SVG/1.1/DTD/svg11.dtd">
<svg version="1.1" id="Layer_1" xmlns="http://www.w3.org/2000/svg" xmlns:xlink="http://www.w3.org/1999/xlink" x="0px" y="0px"
	 width="866px" height="1000px" viewBox="0 0 866 1000" enable-background="new 0 0 866 1000" xml:space="preserve">
<path d="M842.934,242.743c-29.869,13.275-62.038,22.234-95.777,26.263c34.45-20.623,60.872-53.3,73.33-92.267
	c-32.232,19.107-67.912,32.997-105.892,40.471c-30.43-32.413-73.775-52.654-121.744-52.654
	c-92.077,0-166.764,74.678-166.764,166.786c0,13.041,1.474,25.743,4.327,37.99c-138.603-6.955-261.502-73.352-343.76-174.26
	c-14.356,24.62-22.552,53.269-22.552,83.859c0,57.85,29.423,108.904,74.167,138.804c-27.324-0.87-53.046-8.377-75.524-20.888
	c-0.022,0.721-0.022,1.431-0.022,2.141c0,80.752,57.49,148.146,133.778,163.52c-13.985,3.774-28.734,5.832-43.939,5.832
	c-10.751,0-21.217-1.028-31.374-3.001c21.227,66.237,82.809,114.47,155.78,115.806c-57.077,44.724-128.976,71.412-207.119,71.412
	c-13.456,0-26.73-0.806-39.783-2.354c73.818,47.342,161.473,74.931,255.649,74.931c306.755,0,474.484-254.121,474.484-474.494
	c0-7.22-0.138-14.441-0.456-21.588C792.326,305.587,820.604,276.185,842.934,242.743z"/>
</svg>
