<?xml version="1.0" encoding="utf-8"?>
<!-- Generator: Adobe Illustrator 17.0.0, SVG Export Plug-In . SVG Version: 6.00 Build 0)  -->
<!DOCTYPE svg PUBLIC "-//W3C//DTD SVG 1.1//EN" "http://www.w3.org/Graphics/SVG/1.1/DTD/svg11.dtd">
<svg version="1.1" id="Layer_1" xmlns="http://www.w3.org/2000/svg" xmlns:xlink="http://www.w3.org/1999/xlink" x="0px" y="0px"
	 width="866px" height="1000px" viewBox="0 0 866 1000" enable-background="new 0 0 866 1000" xml:space="preserve">
<path d="M481.129,19.85v222.396h222.396v171.693H481.129v246.579c0,55.801-0.653,87.969,5.224,103.79
	c5.876,15.721,20.617,32.044,36.639,41.461c21.345,12.807,45.579,19.186,72.951,19.186c48.693,0,97.135-15.821,145.301-47.462
	v151.629c-41.034,19.361-78.276,32.972-111.575,40.731c-33.349,7.76-69.36,11.727-108.083,11.727
	c-43.972,0-69.913-5.575-103.664-16.599c-33.801-11.2-62.63-27.07-86.438-47.487c-23.982-20.567-40.405-42.44-49.671-65.568
	c-9.216-23.18-13.837-56.755-13.837-100.726v-337.26H137.34V277.73c37.795-12.256,81.54-29.859,108.411-52.762
	c27.046-22.952,48.643-50.451,64.89-82.569c16.399-32.069,27.599-72.977,33.727-122.549H481.129L481.129,19.85z"/>
</svg>
